# xmcd
#
# Track frame offsets: 
#        150
#        21975
#        36687
#        53640
#        73357
#        90487
#        112980
#        131607
#        149427
#        177432
#        196657
#        214800
#        225990
#        239507
#        257985
#
# Disc length: 3791 seconds
#
# Revision: 2
# Processed by: cddbd v1.4PL0 Copyright (c) Steve Scherf et al.
# Submitted via: ExactAudioCopy v0.95a3
#
DISCID=df0ecd0f
DTITLE=Louis Jordan - I Believe In Music
DYEAR=1900
DGENRE=
TTITLE0=It's A Low Down Dirty Shame
TTITLE1=Three-Handed Woman
TTITLE2=Hard Head
TTITLE3=I Believe In Music
TTITLE4=Every Knock Is A Boost
TTITLE5=Caldonia
TTITLE6=Is You Is Or Is You Ain't My Baby
TTITLE7=Saturday Night Fish Fry
TTITLE8=I'm Gonna Move To The Outskirts Of Town
TTITLE9=Red Top
TTITLE10=Take The A Train
TTITLE11=Groovin' In Paris I
TTITLE12=Groovin' In Paris II
TTITLE13=Something For Fred
TTITLE14=Something For Louis
EXTD=
EXTT0=
EXTT1=
EXTT2=
EXTT3=
EXTT4=
EXTT5=
EXTT6=
EXTT7=
EXTT8=
EXTT9=
EXTT10=
EXTT11=
EXTT12=
EXTT13=
EXTT14=
PLAYORDER=
